<svg width="25" height="26" viewBox="0 0 25 26" fill="none" xmlns="http://www.w3.org/2000/svg">
  <path d="M24.9263 24.8082L15.9112 0.926335C15.6706 0.306226 15.2165 0 14.5646 0H10.4393C9.78733 0 9.33328 0.302398 9.08103 0.926335L0.0776159 24.8082L0 25.1374C0 25.3594 0.0776157 25.5508 0.228966 25.6886C0.380317 25.8379 0.562713 25.9144 0.787798 25.9144H4.24946C4.32319 25.9106 4.40081 25.903 4.47842 25.8915C4.72291 25.8532 4.95576 25.7498 5.1692 25.6312L12.2128 21.6694C12.3758 21.5775 12.5776 21.5775 12.7406 21.6694L19.8192 25.6427C20.021 25.7575 20.2383 25.8494 20.4672 25.8915C20.5992 25.9144 20.735 25.9259 20.8631 25.9259C20.9446 25.9259 21.0261 25.9221 21.1037 25.9144H24.2083C24.4101 25.9144 24.5886 25.8379 24.7555 25.6886C24.9146 25.5508 25 25.3594 25 25.1374L24.9263 24.8082ZM12.2206 16.8999L7.40453 19.6138C7.28811 19.6789 7.1484 19.5641 7.19497 19.4377L12.3603 5.56184C12.4069 5.43552 12.5854 5.43552 12.6358 5.56184L17.7856 19.4377C17.8322 19.5641 17.6964 19.6789 17.5761 19.6138L12.7561 16.8999C12.5854 16.808 12.3836 16.808 12.2206 16.8999Z" fill="url(#paint0_linear)" />
  <defs>
    <linearGradient id="paint0_linear" x1="0.00089258" y1="12.9667" x2="25.0035" y2="12.9667" gradientUnits="userSpaceOnUse">
      <stop stop-color="#C73414" />
      <stop offset="0.0756" stop-color="#C52F0F" />
      <stop offset="1" stop-color="#FD4305" />
    </linearGradient>
  </defs>
</svg>